<svg xmlns="http://www.w3.org/2000/svg" viewBox="0 0 100.34 135.79">
    <path d="M3 20.85c-.71 2.73-.69 5.95.25 7.75a74 74 0 0 0 6.47 10.3c5 7.22 5.26 6.72 7.75 10.89 1.47 2.46 2.78 4.4 4.22 6.87 2.3 3.93 3.67 4.5 5.3 4.81.49.09 1 .07 5.59-1.91 3.56-1.55 3.87-1.91 4.57-1.77 2.74.54 6.43 6.41 6.91 7.65 7.49 19.31 18.4 22.56 30.76 50.78 0 0 5 13.42 12.66 16.49a9 9 0 0 0 3.24.58 8.15 8.15 0 0 0 6.48-3.53c1.76-3-.45-7.34-2.65-11.18-5.83-10.16-11.29-16.58-15.31-21.79-9.68-12.47-6.69-12-14.42-20.9-4.64-5.33-8-11.72-13-16.78-1.16-1.19-4.4-4.43-3.82-7.94a6.47 6.47 0 0 1 1.76-3.34c1.8-1.7 3.38-.89 6.09-2.26.46-.23 3.58-1.85 4.41-4.61S60 35 58.93 33.43c-9-14.1-9.25-16.18-19.65-28.33-1.71-2-4.16-2.92-5.08-2.5-1.29.59-3.15 3.5-1.47 7.65 1.61 4 6.86 9.88 8.54 13 2.68 5 3.06 5.08 4 7.94a42.08 42.08 0 0 0 1.23 4.54c.46 1.42.09 3.55-2 3.78-1.52.17-4.74-.59-5.32-1.82A75.51 75.51 0 0 0 33 27c-4.29-6.62-3.67-5.45-8.83-11.77-2.58-3.18-4.53-5.06-6-5-4 .14-3.45 2.42-2.85 4.91.49 2 .57 3.75 4 8.63s5.62 7 7.75 10.11 3.47 4.22 4.85 7.26a7.84 7.84 0 0 1 1.13 5.2c-.07 1.94-4.06 1.72-6.08.78s-2.4-3.07-4.32-6.18c-3.78-6.13-3.45-4.74-8.14-11.28-2.33-3.24-2.85-4.37-5.4-8.54C8.4 19.86 6 18 4.47 18.59 3.49 19 3.15 20.28 3 20.85Z"
          style="fill:#32a1d9;stroke:#020303;stroke-miterlimit:10;stroke-width:5px"/>
</svg>