<svg xmlns="http://www.w3.org/2000/svg" viewBox="0 0 641.64 419.8"><defs><style>.cls-1,.cls-5{fill:none}.cls-1,.cls-4,.cls-6,.cls-8{stroke:#020303}.cls-1,.cls-4,.cls-5,.cls-6,.cls-8{stroke-miterlimit:10;stroke-width:5px}.cls-2,.cls-4{fill:#e37d0e}.cls-5{stroke:#060707}.cls-6{fill:#fff}.cls-7{fill:#020303}.cls-8{fill:#5b442f}</style></defs><path d="m216.97 34.46 1.55 19.02" class="cls-1"/><path d="M328.85 320.2a60.88 60.88 0 0 0-13.29.05 11.21 11.21 0 0 0-5.67 2.27 12.35 12.35 0 0 0-3.28 4.68 2.58 2.58 0 0 0 .9 3.42 2.52 2.52 0 0 0 3.42-.9 8.66 8.66 0 0 1 2.25-3.46 8.14 8.14 0 0 1 4.2-1.24 65.59 65.59 0 0 1 11.47.18 2.5 2.5 0 0 0 0-5Z" class="cls-2"/><path d="M316.25 328.25a109.73 109.73 0 0 0 12.27-1.25 2.5 2.5 0 0 0 1.75-3.07 2.58 2.58 0 0 0-3.08-1.75l-1.47.22-.68.1h.1-.34q-1.43.18-2.85.33c-1.89.19-3.8.33-5.7.42a2.5 2.5 0 0 0 0 5Z" class="cls-2"/><path d="M314.05 322.48q-.53 3.52-.89 7.07a2.5 2.5 0 0 0 4.27 1.77l.39-.5a2.44 2.44 0 0 0 .34-1.27c.16-1.51.33-3 .54-4.52l-.09.66c.08-.62.17-1.25.26-1.88a2.67 2.67 0 0 0-.25-1.92 2.5 2.5 0 0 0-3.42-.9 2.41 2.41 0 0 0-1.15 1.49Z" class="cls-2"/><path d="M317.56 320.85c-2.61 3.7-7.63 4.89-11.88 5.22l.66 4.91c3.05-.83 6.12-1.5 9.21-2.19a15 15 0 0 0 4.2-1.51c1.26-.71 2.34-1.68 3.53-2.49a50.89 50.89 0 0 1 8.16-4l4.66-2.07 2.22-1c.27-.12.53-.25.81-.36s1-.14.61-.21l-1.1-4.18c-2.11 2.08-5.26 3.06-7.8 4.51-3 1.68-5.81 3.59-8.65 5.5l3.42 3.42c.95-1.4 2.72-2.1 4.21-2.78q3.24-1.47 6.53-2.83c4.07-1.71 8.46-4.14 13-4l-.67-4.91c-12.56 3.49-25.56 5.38-37.72 10.24-5.91 2.35-11.65 5.15-17.77 6.92-2.62.76-7 .93-7.1 4.6-.09 4.47 5.6 3.15 8.28 2.84q11.47-1.33 22.79-3.65a2.52 2.52 0 0 0 1.74-3.07 2.55 2.55 0 0 0-3.07-1.75q-6.69 1.36-13.43 2.39-3.28.51-6.57.91l-3.39.39-1.46.15-1 .1q-.69 0 0 .06l.89.9-.13-.25.34 1.26c0 .37-1.25.87-.65 1a2.82 2.82 0 0 0 .54-.13l1.55-.36c.95-.23 1.89-.5 2.83-.79 1.95-.59 3.86-1.29 5.76-2 3.74-1.47 7.4-3.13 11.13-4.62 7.75-3.09 15.84-5 23.95-6.87 4.61-1.05 9.22-2.11 13.78-3.37a2.51 2.51 0 0 0-.66-4.91c-5.35-.16-10.4 2.53-15.2 4.55-2.46 1-4.93 2.07-7.35 3.2a12.82 12.82 0 0 0-5.48 4.34c-1.39 2 1.37 4.79 3.42 3.42 3-2 5.93-4 9-5.74 2.85-1.59 6-2.72 8.4-5.05 1.25-1.22.8-3.86-1.1-4.18a8.24 8.24 0 0 0-5.05 1l-4.67 2.07c-3 1.34-6.19 2.55-9.1 4.16-2.56 1.4-4.5 3.55-7.4 4.26-3.28.8-6.58 1.45-9.84 2.33-2.64.71-2.21 5.13.67 4.91 6.21-.47 12.46-2.39 16.2-7.69a2.5 2.5 0 0 0-4.32-2.53Z" class="cls-2"/><path d="m314.66 328.43.17.05-.6-.25.16.09-.51-.39a5.16 5.16 0 0 1 .72.82l.8 1 1.57 2a2 2 0 0 0 .81.52 2 2 0 0 0 1 .21 2.55 2.55 0 0 0 1.77-.73 2.51 2.51 0 0 0 .73-1.77l-.09-.66a2.53 2.53 0 0 0-.64-1.11l-1.81-2.21-.88-1.09a2.55 2.55 0 0 0-.38-.43 3.19 3.19 0 0 0-1.32-.79l-.17-.05a2.62 2.62 0 0 0-1.92.25 2.54 2.54 0 0 0-1.15 1.5 2.48 2.48 0 0 0 .25 1.92 2.52 2.52 0 0 0 1.49 1.15Z" class="cls-2"/><path d="M312.19 329.31c3.22 0 3.23-5 0-5s-3.22 5 0 5Z" class="cls-2"/><path d="M201.32 410.59a8 8 0 0 1-2.35-.52c-5-1.95-25.26-10.15-36.44-19.74-12.84-11-26.54-34.75-28.43-43.1-1.68-7.38-3.74-31.19 9.59-39.44s8.75-38.53 31.68-53.2 36.69-22 71.54-41.27 106.4-43.11 128.41-47.7 44-12.84 66.95-13.76 44 .92 67.88 8.26 47.69 18.34 58.7 29.35 32.1 33.94 44 56.86 21.1 52.29 23.85 74.3 3.67 67.87 0 77-9.17 7.34-37.61 12.84-58.7 7.34-82.54 5.51-50.45-6.42-64.21-6.42-26.6 4.12-71.54 7.1c-42.45 2.86-166.03-5.18-179.48-6.07Z" style="stroke:#08090a;fill:#e37d0e;stroke-miterlimit:10;stroke-width:5px"/><path d="M290.49 344.45c-5.27 1.61-1.73.53-8.72 1.93-27.52 5.5-44.95 4.58-67.88 0s-65.18-18-81.2-28.26-38.95-32.28-50-50.62S65.31 219.8 69 194.12s7.16-46.37 15.59-66c8.25-19.26 16.57-29.49 24.76-40.35 7-9.32 12.79-16 12.79-16 9.31-12.84 28.49-34.44 41.33-39.94S207.47 7 210.22 7s-5.2 26.77 8.13 27.66c10.09 0 44.16-4.73 64.33-2 19.23 2.63 30.13 6.91 31.11 7.31a.12.12 0 0 0 .14 0l22.86-24.7 15.48-12.74a.13.13 0 0 1 .19 0 130.65 130.65 0 0 1 9.1 28.29c3.67 17.43 7.34 18.35 18.35 30.27s20.93 36.12 23.84 46.77c3 11 11 29.36 9.18 55.95s.91 54.12-9.18 77.05-22.93 45.86-34.85 59.62c-2.43 2.8-4.71 5.23-6.91 7.37M362 307.89l-.86.82" class="cls-4"/><path d="M290.49 344.13a39 39 0 0 0-3.83 7.74c-2.25 5.69-3.2 16.51-2.75 24.76.47 8.7 3.21 15.59 9.17 21.1s13.3 11 17.89 12.84 11.92 4.13 19.72 0 17.42-9.17 22.93-15.59 8.25-17 13.3-23.39 10.08-13.76 17.42-16 12.38-4.59 24.31-3.21 24.3 3.93 30.72 7.7 11 4.68 16.06 10.18 6.57 9.49 8.71 16.51c2.1 6.87 6.42 12.84-3.21 16.51s-16.51 4.59-28.43 4.59-21.1-.92-28-.46M439.37 341.32a58.3 58.3 0 0 0-14.67-17.89c-10.09-8.25-13.76-13.3-31.64-14.67s-30.73-2.75-44 0-41.27 13.76-50 24.3a132.94 132.94 0 0 0-8.55 11.07" class="cls-5"/><circle cx="132.7" cy="154.83" r="84.89" class="cls-6"/><circle cx="277.34" cy="167.44" r="84.89" class="cls-6"/><path d="M250.77 33.37c-9.63 19-16 33.84-16 33.84M268.7 57a236.21 236.21 0 0 0 13.57-23.61M216.2 36.11a208.35 208.35 0 0 0-2 25.47M76.29 256.53c-41.14 35.93-43 57.42-43 57.42M75 243c-51.52 18.44-59.79 37.24-59.79 37.24M72.08 235.47c-56.57-.58-70.28 13.72-70.28 13.72M390.82 232.43c59.79 20.18 71.32 39.81 71.32 39.81M386.24 219.2c63.1.22 80.25 15.2 80.25 15.2M386 211.18c60-19.37 81-10.45 81-10.45" class="cls-1"/><ellipse cx="193.81" cy="234.4" class="cls-7" rx="12.86" ry="8.94" transform="rotate(-60 193.807 234.397)"/><ellipse cx="168.03" cy="162.55" class="cls-7" rx="11.38" ry="9.92" transform="rotate(-60 168.026 162.55)"/><ellipse cx="244.83" cy="157.33" class="cls-7" rx="11.38" ry="9.92" transform="rotate(-60 244.834 157.336)"/><path d="M633.28 401.51c-2.13 1.88-3.31 1.89-11.82 3.15-11.21 1.67-17.56 3-17.56 3a278.38 278.38 0 0 1-36.47 4.72c-18.49 1-23.5 1.06-42.09 0-14.77-.85-20.3-2.14-25.33-7.07-7.17-7-9.15-17.34-10.52-24.5-2.38-12.36-1-21.64 1.56-39.58 1.49-10.36 3.5-23.77 9.35-40.05 3.35-9.34 6-16.56 11.69-24.5 4.26-6 10.6-14.8 21.43-18.38 3.43-1.13 15.64-5.15 24.55 2.83 8.13 7.28 8.87 20.4 9.74 35.81.57 10 1.2 21.06-2.72 33.92a352.6 352.6 0 0 1-14.42 39.58c-.49 1.08-2.3 5-1.17 6.6 1.28 1.82 5.34.25 11.5 0 4-.15 4.57-.18 11.33.69 20.39 2.64 19.18 2.39 24.71 3.07" class="cls-1"/><path d="M563 412.54c2.13 1.9 8.46 2.74 11.2 1.34 7.89-4.05 10.59-14.48 10.71-20.53.25-12-9.74-14.84-11.08-15.09-1-.19 1.14 5.37 0 12.39-2.08 13.91-14.62 18.47-10.83 21.89ZM504.38 292c-1.4 3.15 2 10.17 6.23 12.34 12.23 6.24 30.67 3.92 40.3 1.07C570 299.8 567 288 566.44 286.47c-.45-1.15-7.62 3.83-19.49 6.15-23.52 4.58-40.02-6.26-42.57-.62ZM498.82 398.73c-.34 3.51 4.59 9.76 8.91 10.91 12.45 3.29 27.91-3.54 35.53-8.77 15.09-10.35 9.19-21.53 8.24-22.91-.72-1-5.58 5.72-15.31 11-19.27 10.31-36.74 3.42-37.37 9.77ZM489.5 354.7c-1.52 3.1 2.12 10 6.7 12.13 13.16 6.13 33 3.85 43.37 1.05 20.55-5.56 17.37-17.17 16.72-18.66-.49-1.12-8.2 3.77-21 6-25.29 4.55-43.06-6.1-45.79-.52ZM494.88 323.51c-1.61 3.1 2.25 10 7.1 12.13 13.95 6.13 35 3.85 46 1.05 21.77-5.56 18.41-17.17 17.72-18.66-.52-1.12-8.69 3.77-22.23 6-26.87 4.55-45.69-6.1-48.59-.52Z" class="cls-8"/></svg>