<svg xmlns="http://www.w3.org/2000/svg" viewBox="0 0 247.23 78.86"><defs><style>.cls-6{fill:none;stroke-width:3px}.cls-3,.cls-4,.cls-6{stroke-miterlimit:10}.cls-3{fill:#a8a2a2}.cls-3,.cls-4{stroke-width:5px}.cls-3,.cls-4,.cls-6{stroke:#1d1d1b}.cls-4{fill:#fff}.cls-5{fill:#1d1d1b}</style></defs><path d="M1.27 49C7.29 39.38 17 3.89 40 26.05c7.78 7.52 12.72 19 25.45 32.33 9.45 9.92 27.13 19.86 63.34 18" style="stroke-miterlimit:10;stroke:#020303;fill:none;stroke-width:3px"/><path d="M129.24 75.58s-5.27-4.63-5-9.26.76-11.56 2.51-14.66 2.53-5.4 8-9.07 9.63-6.18 21.56-13.51 11-12.73 32.1-14.47 31.26 2.51 36.27 5.4 11.65 6 12.34 9.07 1.38 8.88-1.83 12-10.79 11.35-14.46 14.63-8.9 12.66-10.81 15.63-1.11 5-6.16 5-74.52-.76-74.52-.76Z" style="stroke-width:5px;fill:#a8a2a2;stroke-miterlimit:10;stroke:#020303"/><ellipse cx="173.27" cy="14.47" class="cls-3" rx="17.43" ry="11.97"/><ellipse cx="147.93" cy="31.22" class="cls-3" rx="17.08" ry="11.73"/><ellipse cx="203.45" cy="18.57" class="cls-4" rx="17.06" ry="16.07"/><ellipse cx="179.23" cy="33.69" class="cls-4" rx="17.43" ry="16.07"/><ellipse cx="210.31" cy="14.48" class="cls-5" rx="3.95" ry="3.6"/><ellipse cx="186.39" cy="29.41" class="cls-5" rx="3.64" ry="3.32"/><ellipse cx="240.47" cy="31.15" class="cls-5" rx="7.34" ry="6.3" transform="rotate(-49.6 240.475 31.145)"/><path d="M229.94 47.68a26.76 26.76 0 0 0 6.87.19 24.54 24.54 0 0 0 8.43-2.45M220.91 48.25a25.55 25.55 0 0 0 5.89 3.89 24.72 24.72 0 0 0 6.37 2.18 25.84 25.84 0 0 0 8.92.13" class="cls-6"/></svg>