<svg xmlns="http://www.w3.org/2000/svg" viewBox="0 0 161.01 168.92"><defs><style>.cls-2{fill:#a8a2a2}.cls-2,.cls-3,.cls-5{stroke-miterlimit:10}.cls-2,.cls-3{stroke-width:5px}.cls-2,.cls-3,.cls-5{stroke:#1d1d1b}.cls-3{fill:#fff}.cls-4{fill:#1d1d1b}.cls-5{fill:none;stroke-width:3px}</style></defs><path d="M43 165.5s-5.27-5.5-5-11 .76-13.74 2.52-17.42 2.52-6.42 8-10.78 9.64-7.34 21.56-16.05 11-15.14 32.1-17.2 31.26 3 36.27 6.42 11.65 7.11 12.34 10.78 1.38 10.55-1.83 14.21-10.78 13.54-14.45 17.42-8.9 15.05-10.8 18.57-1.12 6-6.17 6S43 165.5 43 165.5Z" style="stroke-width:5px;stroke-miterlimit:10;stroke:#020303;fill:#a8a2a2"/><circle cx="87.05" cy="85.25" r="17.43" class="cls-2"/><circle cx="61.71" cy="109.64" r="17.08" class="cls-2"/><ellipse cx="117.23" cy="97.74" class="cls-3" rx="17.06" ry="19.09"/><ellipse cx="93.01" cy="115.72" class="cls-3" rx="17.43" ry="19.09"/><ellipse cx="124.09" cy="92.89" class="cls-4" rx="3.95" ry="4.27"/><ellipse cx="100.17" cy="110.63" class="cls-4" rx="3.64" ry="3.94"/><ellipse cx="154.25" cy="112.7" class="cls-4" rx="8.39" ry="6.54" transform="rotate(-71.42 154.265 112.706)"/><path d="M144.81 128.88a22.59 22.59 0 0 0 5.27 4.42 21.58 21.58 0 0 0 8.43 2.89M140.16 126.73a25.49 25.49 0 0 0 1.07 7.41 22.24 22.24 0 0 0 2.83 6.27 21.79 21.79 0 0 0 6.34 6.27" class="cls-5"/><path d="M33.14 1.28c3.48 2.14 11.63 7.83 15.59 18.34 5.45 14.45-.87 27.82-2.75 31.8C42.55 58.69 40.74 57.65 27 75c-6.7 8.45-10.69 13.53-15 21.09-5 8.8-8.43 14.91-9.74 23.51-.73 4.83-3 19.84 6.73 32.4 11.86 15.29 31.87 14.49 33.94 14.37" style="fill:none;stroke-width:3px;stroke-miterlimit:10;stroke:#020303"/></svg>