<svg xmlns="http://www.w3.org/2000/svg" viewBox="0 0 269.89 77.23"><defs><style>.cls-6{fill:none;stroke-width:3px}.cls-3,.cls-4,.cls-6{stroke-miterlimit:10}.cls-3{fill:#a8a2a2}.cls-3,.cls-4{stroke-width:5px}.cls-3,.cls-4,.cls-6{stroke:#1d1d1b}.cls-4{fill:#fff}.cls-5{fill:#1d1d1b}</style></defs><path d="M269 54.31c-7.34-5.24-35-7.58-46.13-7-13.1.72-15.52 10.37-31 17.67-11.53 5.42-33.08 10.85-77.24 9.82" style="stroke-miterlimit:10;stroke:#020303;fill:none;stroke-width:3px"/><path d="M114.12 74s5.1-4.53 4.87-9.06-.73-11.31-2.43-14.34-2.44-5.29-7.77-8.87S99.48 35.67 88 28.5 77.3 16 56.9 14.34s-30.23 2.46-35.08 5.29-11.27 5.85-11.94 8.87-1.33 8.68 1.78 11.7 10.42 11.13 14 14.34 8.61 12.38 10.45 15.29 1.08 4.9 6 4.9 72.01-.73 72.01-.73Z" style="stroke-width:5px;fill:#a8a2a2;stroke-miterlimit:10;stroke:#020303"/><ellipse cx="71.53" cy="14.21" class="cls-3" rx="16.86" ry="11.71"/><ellipse cx="96.04" cy="30.59" class="cls-3" rx="16.52" ry="11.47"/><ellipse cx="42.35" cy="18.21" class="cls-4" rx="16.5" ry="15.71"/><ellipse cx="65.77" cy="33.01" class="cls-4" rx="16.86" ry="15.71"/><ellipse cx="35.55" cy="14.97" class="cls-5" rx="5.97" ry="1.53" transform="rotate(-30 35.55 14.966)"/><ellipse cx="59.91" cy="29.18" class="cls-5" rx="5.97" ry="1.53" transform="rotate(-30 59.904 29.171)"/><ellipse cx="6.54" cy="30.52" class="cls-5" rx="6.12" ry="7.15" transform="rotate(-38.36 6.53 30.518)"/><path d="M16.72 46.68a25.42 25.42 0 0 1-6.65.2 23.58 23.58 0 0 1-8.15-2.41M25.46 47.24a24.81 24.81 0 0 1-5.7 3.81 24.27 24.27 0 0 1-6.16 2.13 24.67 24.67 0 0 1-8.6.13" class="cls-6"/></svg>