<svg xmlns="http://www.w3.org/2000/svg" viewBox="0 0 85.13 66.14"><path d="M39.62 25.92c2.44.2 3.67-3.8 8.47-10.07S57 4.25 62.83 2.86C70.34 1.1 80.59 6 82.37 12.94c1.46 5.75-3.28 11.24-10.05 19.06a73 73 0 0 1-11.41 10.57C49.62 51 50.68 50.77 41.58 57.24c-4.07 2.89-7.89 6.09-9.47 6.36-2 .34-3.3-1.57-5.22-3.5-6.74-6.76-7.84-4.93-13.6-10.74C9 45 5.12 41.11 3.4 34.71a24.52 24.52 0 0 1 1.71-17.6c1.27-2.4 4.48-8.47 10.7-9.76 7.79-1.61 14.65 5.43 15.9 6.76 5.34 5.74 4.99 11.58 7.91 11.81Z" style="fill:#c12827;stroke:#020303;stroke-miterlimit:10;stroke-width:5px"/></svg>