<svg width="431.000122" height="342.645477" viewBox="0 0 431 342.645" fill="none" xmlns="http://www.w3.org/2000/svg" xmlns:xlink="http://www.w3.org/1999/xlink">
	<desc>
			Created with Pixso.
	</desc>
	<path id="Vector 2" d="M96.5001 342.5L326 342.5C338.765 277.177 342.258 144.904 319.267 56.6543C313.46 34.3653 305.963 14.8845 296.5 6.10352e-05C263.751 33.8791 255.69 51.6479 259 79.5001L168 79.5001C169.5 69.5001 164.497 45.0097 150 29.0235C139.752 17.723 134.657 12.1137 126.5 6.10352e-05C102.486 66.3287 93.0002 59.0001 87.5002 117.5C76.7168 208.544 78.0003 327 96.5001 342.5Z" fill-rule="evenodd" fill="#FFF9CF"/>
	<path id="Vector 3" d="M127 342C121.021 342 131.677 341.999 99.0003 342C66.3232 342.002 84.5003 154 84.0003 149.5C83.5003 145 86.0671 60.7905 127 0.000305176C127 72 118.453 46.0819 106 95C93.5475 143.918 104.565 271.301 127 342Z" fill-rule="evenodd" fill="#FFC600"/>
	<path id="Line 1" d="M106.31 229L113.862 282.621L126.234 340.581" stroke="#000000" stroke-width="3.000000" stroke-linecap="round"/>
	<path id="Line 2" d="M172 252C177 286.503 176.646 306.089 171 341" stroke="#000000" stroke-width="3.000000" stroke-linecap="round"/>
	<path id="Line 3" d="M139 318C140.063 327.678 140.278 332.733 140 341" stroke="#000000" stroke-width="3.000000" stroke-linecap="round"/>
	<path id="Line 4" d="M158.995 318.115C160.031 327.278 159.538 332.301 157.995 341.115" stroke="#000000" stroke-width="3.000000" stroke-linecap="round"/>
	<path id="Line 5" d="M311.5 229C314.175 287.368 306.985 306.268 295 341" stroke="#000000" stroke-width="3.000000" stroke-linecap="round"/>
	<path id="Line 6" d="M237.5 251.5C224.71 303.264 232.014 312.409 236 341" stroke="#000000" stroke-width="3.000000" stroke-linecap="round"/>
	<path id="Line 7" d="M281.5 315.5C280.842 335.359 278.889 332.265 277 341" stroke="#000000" stroke-width="3.000000" stroke-linecap="round"/>
	<path id="Line 8" d="M259.001 315C255.208 326.458 255.371 331.914 257.001 341" stroke="#000000" stroke-width="3.000000" stroke-linecap="round"/>
	<path id="Vector 4" d="M264.162 38.7421C270.789 27.257 296 0 296 0C286.573 35.4212 285.004 84.1017 258 80C257.476 79.7232 257.536 50.2272 264.162 38.7421Z" fill-rule="evenodd" fill="#FFC600"/>
	<path id="Oval 5" d="M192 135C192 141.591 189.733 147.686 185.89 152.636C181.756 157.966 176.101 161.647 169.888 163.534C163.202 165.569 156.319 165.43 150.109 163.533C143.425 161.495 137.943 157.59 134.109 152.634C129.979 147.301 127.992 141.121 128 135L160 135L192 135Z" fill-rule="evenodd" fill="#FFFFFF"/>
	<path id="Oval 6" d="M167 135.5C167 137.368 166.398 139.094 165.377 140.497C164.279 142.007 162.777 143.05 161.127 143.585C159.351 144.161 157.522 144.122 155.873 143.584C154.098 143.007 152.641 141.901 151.623 140.496C150.526 138.985 149.998 137.234 150 135.5L158.5 135.5L167 135.5Z" fill-rule="evenodd" fill="#000000"/>
	<line id="Line 9" x1="128.000305" y1="135.000031" x2="192.000305" y2="135.000031" stroke="#000000"/>
	<path id="Vector 5" d="M162 106C145.578 111.738 137.127 116.918 128 134.5L140.5 134.5C141.758 127.148 145.93 122.888 149.5 118.5C152.931 114.284 156.677 110.898 162 106Z" fill-rule="evenodd" fill="#FFC600"/>
	<path id="Oval 5" d="M302 135C302 141.591 299.733 147.686 295.89 152.636C291.756 157.966 286.101 161.647 279.888 163.534C273.202 165.569 266.319 165.43 260.109 163.533C253.425 161.495 247.943 157.59 244.109 152.634C239.979 147.301 237.992 141.121 238 135L270 135L302 135Z" fill-rule="evenodd" fill="#FFFFFF"/>
	<path id="Oval 6" d="M277 135.5C277 137.368 276.398 139.094 275.377 140.497C274.279 142.007 272.777 143.05 271.127 143.585C269.351 144.161 267.522 144.122 265.873 143.584C264.097 143.007 262.641 141.901 261.623 140.496C260.526 138.985 259.998 137.234 260 135.5L268.5 135.5L277 135.5Z" fill-rule="evenodd" fill="#000000"/>
	<line id="Line 9" x1="238.000183" y1="135.000031" x2="302.000183" y2="135.000031" stroke="#000000"/>
	<path id="Vector 6" d="M257.5 107C246.409 113.28 241.106 119.563 238 134.5L245.5 134.5C245.319 120.592 252.965 115.931 257.5 107Z" fill-rule="evenodd" fill="#FFC600"/>
	<path id="Нос" d="M205.595 174.597C203.469 176.726 203.469 180.178 205.596 182.308L214.072 190.793L214.143 190.722L214.212 190.791L222.405 182.59C224.532 180.461 224.532 177.008 222.405 174.879C220.278 172.75 216.83 172.75 214.703 174.879L214.141 175.441L213.298 174.597C211.171 172.468 207.722 172.468 205.595 174.597Z" clip-rule="evenodd" fill-rule="evenodd" fill="#FF89F5" fill-opacity="1.000000"/>
	<path id="Line 10" d="M240 177C314.782 158.587 355.012 155.916 430 156" stroke="#DCAA00" stroke-width="2.000000" stroke-linecap="round"/>
	<path id="Line 11" d="M240.029 182.499C311.858 167.115 356.088 169.607 424 170" stroke="#DCAA00" stroke-width="2.000000" stroke-linecap="round"/>
	<path id="Line 14" d="M240.003 188.008C314.92 182.029 354.691 177.706 422.5 186" stroke="#DCAA00" stroke-width="2.000000" stroke-linecap="round"/>
	<path id="Line 12" d="M1.00001 153C77.2424 154.388 118.536 159.849 189 177" stroke="#DCAA00" stroke-width="2.000000" stroke-linecap="round"/>
	<path id="Line 13" d="M2.00018 169.5C76.7387 169.425 117.198 173.752 188.501 182.5" stroke="#DCAA00" stroke-width="2.000000" stroke-linecap="round"/>
	<path id="Line 15" d="M1.00019 187C74.3232 182.134 115.683 182.537 189 187" stroke="#DCAA00" stroke-width="2.000000" stroke-linecap="round"/>
	<defs/>
</svg>
